C:\Users\nbianco\repos\ankle-perturb-sim\results\experiments\subject19\walk2\expdata\ground_reaction_unfiltered.mot
version=1
nRows=32
nColumns=19
inDegrees=no
endheader
time	ground_force_r_vx	ground_force_r_vy	ground_force_r_vz	ground_force_r_px	ground_force_r_py	ground_force_r_pz	ground_force_l_vx	ground_force_l_vy	ground_force_l_vz	ground_force_l_px	ground_force_l_py	ground_force_l_pz	ground_torque_r_x	ground_torque_r_y	ground_torque_r_z	ground_torque_l_x	ground_torque_l_y	ground_torque_l_z
2.808333	-53.955638	419.781549	21.635436	1.134098	0.000000	-0.434670	111.774957	382.876785	-4.871641	0.672449	0.000000	-0.555151	0.000000	-0.578363	-0.000000	0.000000	-2.052482	-0.000000
2.809375	-55.735055	428.418382	20.415711	1.135128	0.000000	-0.434717	110.436251	374.674240	-5.279748	0.671543	0.000000	-0.554676	0.000000	-0.417559	-0.000000	0.000000	-2.050160	-0.000000
2.810417	-57.505494	436.941494	18.990923	1.136077	0.000000	-0.434765	108.974845	366.437500	-5.641336	0.670649	0.000000	-0.554194	0.000000	-0.265375	-0.000000	0.000000	-2.047493	-0.000000
2.811458	-59.263771	445.330053	17.372825	1.136938	0.000000	-0.434813	107.390193	358.173625	-5.957417	0.669769	0.000000	-0.553709	0.000000	-0.123248	-0.000000	0.000000	-2.044371	-0.000000
2.812500	-61.006948	453.565127	15.577954	1.137706	0.000000	-0.434863	105.683084	349.889979	-6.230075	0.668903	0.000000	-0.553230	0.000000	0.007611	0.000000	0.000000	-2.040668	-0.000000
2.813542	-62.732358	461.629782	13.627312	1.138379	0.000000	-0.434914	103.855685	341.594176	-6.462412	0.668050	0.000000	-0.552763	0.000000	0.126229	0.000000	0.000000	-2.036243	-0.000000
2.814583	-64.437613	469.509161	11.545928	1.138954	0.000000	-0.434967	101.911567	333.294026	-6.658456	0.667209	0.000000	-0.552317	0.000000	0.231873	0.000000	0.000000	-2.030941	-0.000000
2.815625	-66.120602	477.190528	9.362315	1.139431	0.000000	-0.435021	99.855702	324.997478	-6.823048	0.666378	0.000000	-0.551899	0.000000	0.324052	0.000000	0.000000	-2.024601	-0.000000
2.816667	-67.779475	484.663279	7.107831	1.139812	0.000000	-0.435077	97.694428	316.712563	-6.961699	0.665553	0.000000	-0.551515	0.000000	0.402509	0.000000	0.000000	-2.017059	-0.000000
2.817708	-69.412617	491.918934	4.815956	1.140100	0.000000	-0.435133	95.435386	308.447342	-7.080426	0.664730	0.000000	-0.551170	0.000000	0.467214	0.000000	0.000000	-2.008148	-0.000000
2.818750	-71.018612	498.951092	2.521515	1.140296	0.000000	-0.435189	93.087428	300.209855	-7.185570	0.663905	0.000000	-0.550871	0.000000	0.518347	0.000000	0.000000	-1.997708	-0.000000
2.819792	-72.596204	505.755377	0.259849	1.140406	0.000000	-0.435243	90.660489	292.008086	-7.283608	0.663072	0.000000	-0.550621	0.000000	0.556283	0.000000	0.000000	-1.985589	-0.000000
2.820833	-74.144252	512.329356	-1.934029	1.140433	0.000000	-0.435295	88.165441	283.849928	-7.380943	0.662229	0.000000	-0.550426	0.000000	0.581565	0.000000	0.000000	-1.971655	-0.000000
2.821875	-75.661688	518.672438	-4.026283	1.140382	0.000000	-0.435342	85.613919	275.743165	-7.483708	0.661373	0.000000	-0.550289	0.000000	0.594890	0.000000	0.000000	-1.955788	-0.000000
2.822917	-77.147470	524.785763	-5.985083	1.140259	0.000000	-0.435383	83.018125	267.695459	-7.597563	0.660504	0.000000	-0.550216	0.000000	0.597073	0.000000	0.000000	-1.937894	-0.000000
2.823958	-78.600549	530.672074	-7.781387	1.140070	0.000000	-0.435417	80.390620	259.714342	-7.727505	0.659626	0.000000	-0.550212	0.000000	0.589030	0.000000	0.000000	-1.917905	-0.000000
2.825000	-80.019837	536.335584	-9.389664	1.139818	0.000000	-0.435442	77.744102	251.807216	-7.877698	0.658747	0.000000	-0.550285	0.000000	0.571741	0.000000	0.000000	-1.895783	-0.000000
2.826042	-81.404183	541.781825	-10.788538	1.139511	0.000000	-0.435456	75.091180	243.981345	-8.051313	0.657881	0.000000	-0.550445	0.000000	0.546231	0.000000	0.000000	-1.871524	-0.000000
2.827083	-82.752356	547.017499	-11.961327	1.139153	0.000000	-0.435458	72.444153	236.243843	-8.250411	0.657046	0.000000	-0.550704	0.000000	0.513542	0.000000	0.000000	-1.845158	-0.000000
2.828125	-84.063047	552.050323	-12.896471	1.138749	0.000000	-0.435448	69.814788	228.601646	-8.475846	0.656265	0.000000	-0.551075	0.000000	0.474703	0.000000	0.000000	-1.816748	-0.000000
2.829167	-85.334865	556.888871	-13.587836	1.138304	0.000000	-0.435424	67.214119	221.061470	-8.727207	0.655569	0.000000	-0.551576	0.000000	0.430714	0.000000	0.000000	-1.786397	-0.000000
2.830208	-86.566357	561.542413	-14.034880	1.137822	0.000000	-0.435386	64.652260	213.629738	-9.002799	0.654990	0.000000	-0.552221	0.000000	0.382523	0.000000	0.000000	-1.754240	-0.000000
2.831250	-87.756021	566.020763	-14.242684	1.137306	0.000000	-0.435334	62.138246	206.312492	-9.299669	0.654562	0.000000	-0.553028	0.000000	0.331004	0.000000	0.000000	-1.720448	-0.000000
2.832292	-88.902338	570.334123	-14.221835	1.136762	0.000000	-0.435269	59.679900	199.115273	-9.613661	0.654318	0.000000	-0.554007	0.000000	0.276950	0.000000	0.000000	-1.685219	-0.000000
2.833333	-90.003802	574.492941	-13.988174	1.136191	0.000000	-0.435191	57.283737	192.042990	-9.939524	0.654288	0.000000	-0.555166	0.000000	0.221058	0.000000	0.000000	-1.648785	-0.000000
2.834375	-91.058951	578.507771	-13.562413	1.135597	0.000000	-0.435101	54.954900	185.099773	-10.271041	0.654492	0.000000	-0.556504	0.000000	0.163920	0.000000	0.000000	-1.611396	-0.000000
2.835417	-92.066405	582.389145	-12.969619	1.134983	0.000000	-0.435001	52.697137	178.288835	-10.601201	0.654941	0.000000	-0.558006	0.000000	0.106020	0.000000	0.000000	-1.573325	-0.000000
2.836458	-93.024901	586.147460	-12.238596	1.134349	0.000000	-0.434893	50.512807	171.612357	-10.922383	0.655628	0.000000	-0.559647	0.000000	0.047737	0.000000	0.000000	-1.534855	-0.000000
2.837500	-93.933322	589.792870	-11.401166	1.133699	0.000000	-0.434780	48.402934	165.071415	-11.226566	0.656531	0.000000	-0.561383	0.000000	-0.010660	-0.000000	0.000000	-1.496279	-0.000000
2.838542	-94.790733	593.335200	-10.491375	1.133033	0.000000	-0.434662	46.367279	158.665971	-11.505536	0.657608	0.000000	-0.563155	0.000000	-0.068998	-0.000000	0.000000	-1.457891	-0.000000
2.839583	-95.596407	596.783872	-9.544645	1.132354	0.000000	-0.434544	44.404452	152.394947	-11.751096	0.658798	0.000000	-0.564888	0.000000	-0.127197	-0.000000	0.000000	-1.419978	-0.000000
2.840625	-96.349842	600.147845	-8.596886	1.131663	0.000000	-0.434428	42.512034	146.256408	-11.955262	0.660023	0.000000	-0.566491	0.000000	-0.185257	-0.000000	0.000000	-1.382817	-0.000000
